# xmcd
#
# Track frame offsets:
#	150
#	9964
#	19571
#	35708
#	51971
#	68062
#	82967
#	94402
#	103794
#	114865
#	129055
#	142106
#	156319
#	167413
#	181848
#	195236
#	207541
#	222949
#	236630
#	248664
#	260121
#	272413
#
# Disc length: 3797 seconds
#
# Revision: 0
# Processed by: cddbd v1.5.2PL0 Copyright (c) Steve Scherf et al.
# Submitted via: EasyCDDAExtractor 16.0.6.1
#
DISCID=290ed316
DTITLE=Various Artist - Country Sunset [Disc 05]
DYEAR=1900
DGENRE=Country
TTITLE0=Dave Dudley - Six Days on the Road
TTITLE1=Charlie Walker - Close All the Honky Tonks
TTITLE2=Jack Greene - Red Necking Love Making Night
TTITLE3=Dickey Lee - Rocky
TTITLE4=Holly Dunn - Only When I Love
TTITLE5=Tommy Overstreet - Sail Away
TTITLE6=Lynn Anderson - Listen to a Country Song
TTITLE7=The Everly Brothers - Should We Tell Him
TTITLE8=Connie Smith - Nobody But a Fool
TTITLE9=Margo Smith - It Only Hurts for a Little While
TTITLE10=Ray Price - City Lights
TTITLE11=Lee Greenwood - I.O.U
TTITLE12=Jimmy C. Newman - DJ for a Day
TTITLE13=Donna Fargo - I Know a Heartache When I See One
TTITLE14=Johnny Lee - Pickin' Up Strangers
TTITLE15=Willie Nelson - Shelter of Your Arms
TTITLE16=Bubba James Hudson - Do You Wanna Dance
TTITLE17=Eddy Raven - Right Hand Man
TTITLE18=Bill Anderson - Three A.M
TTITLE19=George Jones - White Lightening
TTITLE20=Freddy Fender - Wasted Days and Wasted Nights
TTITLE21=Glen Campbell - By the Time I Get to Phoenix
EXTD=
EXTT0=
EXTT1=
EXTT2=
EXTT3=
EXTT4=
EXTT5=
EXTT6=
EXTT7=
EXTT8=
EXTT9=
EXTT10=
EXTT11=
EXTT12=
EXTT13=
EXTT14=
EXTT15=
EXTT16=
EXTT17=
EXTT18=
EXTT19=
EXTT20=
EXTT21=
PLAYORDER=
